<svg width="22" height="18" viewBox="0 0 22 18" fill="none" xmlns="http://www.w3.org/2000/svg">
<path d="M8.69289 13.5073C9.08341 13.8978 9.71658 13.8978 10.1071 13.5073C10.4976 13.1168 10.4976 12.4836 10.1071 12.0931L8.69289 13.5073ZM7.39999 10.8002L6.69289 10.0931C6.30236 10.4836 6.30236 11.1168 6.69289 11.5073L7.39999 10.8002ZM10.1071 9.5073C10.4976 9.11677 10.4976 8.48361 10.1071 8.09308C9.71658 7.70256 9.08341 7.70256 8.69289 8.09308L10.1071 9.5073ZM13.3071 8.09308C12.9166 7.70256 12.2834 7.70256 11.8929 8.09308C11.5024 8.48361 11.5024 9.11677 11.8929 9.5073L13.3071 8.09308ZM14.6 10.8002L15.3071 11.5073C15.6976 11.1168 15.6976 10.4836 15.3071 10.0931L14.6 10.8002ZM11.8929 12.0931C11.5024 12.4836 11.5024 13.1168 11.8929 13.5073C12.2834 13.8978 12.9166 13.8978 13.3071 13.5073L11.8929 12.0931ZM2.77142 2.2H8.25714V0.199997H2.77142V2.2ZM8.62856 2.6V5H10.6286V2.6H8.62856ZM8.62856 5V5.2H10.6286V5H8.62856ZM8.25714 2.2C8.44293 2.2 8.62856 2.35954 8.62856 2.6H10.6286C10.6286 1.29405 9.58618 0.199997 8.25714 0.199997V2.2ZM2.77142 0.199997C1.44238 0.199997 0.399994 1.29405 0.399994 2.6H2.39999C2.39999 2.35954 2.58563 2.2 2.77142 2.2V0.199997ZM1.39999 6H9.62856V4H1.39999V6ZM9.62856 6H19.2286V4H9.62856V6ZM19.6 6.4V15.4H21.6V6.4H19.6ZM19.2286 15.8H2.77142V17.8H19.2286V15.8ZM2.39999 15.4V5H0.399994V15.4H2.39999ZM2.77142 15.8C2.58563 15.8 2.39999 15.6404 2.39999 15.4H0.399994C0.399994 16.7059 1.44238 17.8 2.77142 17.8V15.8ZM19.6 15.4C19.6 15.6404 19.4144 15.8 19.2286 15.8V17.8C20.5576 17.8 21.6 16.7059 21.6 15.4H19.6ZM19.2286 6C19.4144 6 19.6 6.15954 19.6 6.4H21.6C21.6 5.09405 20.5576 4 19.2286 4V6ZM10.1071 12.0931L8.1071 10.0931L6.69289 11.5073L8.69289 13.5073L10.1071 12.0931ZM8.1071 11.5073L10.1071 9.5073L8.69289 8.09308L6.69289 10.0931L8.1071 11.5073ZM11.8929 9.5073L13.8929 11.5073L15.3071 10.0931L13.3071 8.09308L11.8929 9.5073ZM13.8929 10.0931L11.8929 12.0931L13.3071 13.5073L15.3071 11.5073L13.8929 10.0931ZM2.39999 5V2.6H0.399994V5H2.39999Z" fill="black"/>
</svg>
